<svg version="1.1" xmlns="http://www.w3.org/2000/svg" width="57" height="64" viewBox="0 0 57 64">
<title>nodejs</title>
<path fill="#539e43" d="M28.346 63.881c-0.88 0-1.702-0.235-2.465-0.646l-7.805-4.636c-1.174-0.646-0.587-0.88-0.235-0.998 1.585-0.528 1.878-0.646 3.521-1.585 0.176-0.117 0.411-0.059 0.587 0.059l5.986 3.58c0.235 0.117 0.528 0.117 0.704 0l23.416-13.557c0.235-0.117 0.352-0.352 0.352-0.646v-27.055c0-0.293-0.117-0.528-0.352-0.646l-23.416-13.498c-0.235-0.117-0.528-0.117-0.704 0l-23.416 13.498c-0.235 0.117-0.352 0.411-0.352 0.646v27.055c0 0.235 0.117 0.528 0.352 0.646l6.397 3.697c3.463 1.761 5.634-0.293 5.634-2.348v-26.703c0-0.352 0.293-0.704 0.704-0.704h2.993c0.352 0 0.704 0.293 0.704 0.704v26.703c0 4.636-2.524 7.336-6.925 7.336-1.35 0-2.406 0-5.399-1.467l-6.162-3.521c-1.526-0.88-2.465-2.524-2.465-4.284v-27.055c0-1.761 0.939-3.404 2.465-4.284l23.416-13.557c1.467-0.822 3.463-0.822 4.93 0l23.416 13.557c1.526 0.88 2.465 2.524 2.465 4.284v27.055c0 1.761-0.939 3.404-2.465 4.284l-23.416 13.557c-0.763 0.352-1.643 0.528-2.465 0.528v0zM35.565 45.277c-10.27 0-12.383-4.695-12.383-8.686 0-0.352 0.293-0.704 0.704-0.704h3.052c0.352 0 0.646 0.235 0.646 0.587 0.47 3.11 1.819 4.636 8.040 4.636 4.93 0 7.043-1.115 7.043-3.756 0-1.526-0.587-2.641-8.275-3.404-6.397-0.646-10.388-2.054-10.388-7.16 0-4.754 3.991-7.571 10.681-7.571 7.512 0 11.209 2.582 11.679 8.216 0 0.176-0.059 0.352-0.176 0.528-0.117 0.117-0.293 0.235-0.469 0.235h-3.052c-0.293 0-0.587-0.235-0.646-0.528-0.704-3.228-2.524-4.284-7.336-4.284-5.399 0-6.045 1.878-6.045 3.287 0 1.702 0.763 2.23 8.040 3.169 7.219 0.939 10.622 2.289 10.622 7.336-0.059 5.165-4.284 8.099-11.737 8.099v0z"></path>
</svg>
