<svg version="1.1" xmlns="http://www.w3.org/2000/svg" width="64" height="64" viewBox="0 0 64 64">
<title>typescript</title>
<path fill="#fff" d="M6.4 7.721h55.67v54.756h-55.67v-54.756z"></path>
<path fill="#007acc" d="M0 32v32h64v-64h-64v32zM51.576 29.45c1.625 0.406 2.865 1.128 4.003 2.306 0.589 0.63 1.463 1.778 1.534 2.052 0.020 0.081-2.763 1.95-4.45 2.997-0.061 0.041-0.305-0.224-0.579-0.63-0.823-1.199-1.686-1.717-3.007-1.808-1.94-0.132-3.19 0.884-3.18 2.58 0 0.498 0.071 0.792 0.274 1.199 0.427 0.884 1.219 1.412 3.708 2.489 4.582 1.971 6.542 3.271 7.761 5.12 1.361 2.062 1.666 5.354 0.742 7.802-1.016 2.662-3.535 4.47-7.081 5.069-1.097 0.193-3.698 0.163-4.876-0.051-2.57-0.457-5.008-1.727-6.512-3.393-0.589-0.65-1.737-2.347-1.666-2.469 0.031-0.041 0.295-0.203 0.589-0.376 0.284-0.163 1.361-0.782 2.377-1.371l1.839-1.067 0.386 0.569c0.538 0.823 1.717 1.95 2.428 2.326 2.042 1.077 4.846 0.924 6.227-0.315 0.589-0.538 0.833-1.097 0.833-1.92 0-0.742-0.091-1.067-0.477-1.625-0.498-0.711-1.514-1.31-4.399-2.56-3.302-1.422-4.724-2.306-6.024-3.708-0.752-0.813-1.463-2.113-1.757-3.2-0.244-0.904-0.305-3.169-0.112-4.084 0.681-3.19 3.088-5.415 6.563-6.075 1.128-0.213 3.749-0.132 4.856 0.142zM36.551 32.122l0.020 2.621h-8.33v23.67h-5.892v-23.67h-8.33v-2.57c0-1.422 0.030-2.611 0.071-2.641 0.030-0.041 5.1-0.061 11.246-0.051l11.185 0.030 0.031 2.611z"></path>
</svg>
